<svg xmlns="http://www.w3.org/2000/svg" width="24" height="24" viewBox="0 0 24 24" fill="none">
  <path d="M20.7623 18.7625L21.4883 18.5742V18.5742L20.7623 18.7625ZM20.5287 17.8621L19.8028 18.0505V18.0505L20.5287 17.8621ZM3.47126 17.8622L2.74529 17.6738H2.74529L3.47126 17.8622ZM3.23769 18.7625L3.96366 18.9508H3.96366L3.23769 18.7625ZM4.28457 16.586L4.0031 15.8908H4.0031L4.28457 16.586ZM3.8021 16.949L4.39435 17.4092L3.8021 16.949ZM20.1979 16.949L19.6057 17.4092V17.4092L20.1979 16.949ZM19.7154 16.586L19.9969 15.8908V15.8908L19.7154 16.586ZM20.4522 20.8371L20.074 20.1894L20.4522 20.8371ZM20.9628 20.2069L21.6769 20.4359H21.6769L20.9628 20.2069ZM3.54784 20.8371L3.92601 20.1894H3.92601L3.54784 20.8371ZM3.03723 20.2069L3.75141 19.9778H3.75141L3.03723 20.2069ZM11.1644 2.26981L10.8388 1.59416V1.59416L11.1644 2.26981ZM4.32854 5.56369L4.6541 6.23934L4.32854 5.56369ZM3.4929 7.97963L2.82716 8.32503H2.82716L3.4929 7.97963ZM3.69598 8.37107L4.36172 8.02567H4.36172L3.69598 8.37107ZM20.304 8.37107L19.6383 8.02567V8.02567L20.304 8.37107ZM20.5071 7.97963L19.8414 7.63423V7.63423L20.5071 7.97963ZM19.6715 5.56369L19.997 4.88804L19.6715 5.56369ZM12.8356 2.26981L13.1612 1.59416V1.59416L12.8356 2.26981ZM20.9437 6.86378L21.6937 6.85787L20.9437 6.86378ZM20.7155 6.2039L20.1201 6.65998V6.65998L20.7155 6.2039ZM3.28451 6.2039L2.68912 5.74783H2.68912L3.28451 6.2039ZM3.05627 6.86378L2.3063 6.85787L3.05627 6.86378ZM20.0897 8.60455L19.8531 7.89284L19.8531 7.89284L20.0897 8.60455ZM20.1988 8.53957L20.7136 9.08499L20.7136 9.08498L20.1988 8.53957ZM3.91034 8.60455L4.14692 7.89284L4.14692 7.89284L3.91034 8.60455ZM3.80125 8.53957L3.28644 9.08498L3.28645 9.08499L3.80125 8.53957ZM11.7847 2.0193L11.6512 1.28127L11.7847 2.0193ZM12.2153 2.0193L12.3488 1.28127L12.2153 2.0193ZM5.41078 15.3727C5.41078 15.7869 5.74657 16.1227 6.16078 16.1227C6.575 16.1227 6.91078 15.7869 6.91078 15.3727H5.41078ZM6.91078 8.61993C6.91078 8.20571 6.575 7.86993 6.16078 7.86993C5.74657 7.86993 5.41078 8.20571 5.41078 8.61993H6.91078ZM11.25 15.3727C11.25 15.7869 11.5858 16.1227 12 16.1227C12.4142 16.1227 12.75 15.7869 12.75 15.3727H11.25ZM12.75 9.74539C12.75 9.33117 12.4142 8.99539 12 8.99539C11.5858 8.99539 11.25 9.33117 11.25 9.74539H12.75ZM17.0892 15.3727C17.0892 15.7869 17.425 16.1227 17.8392 16.1227C18.2534 16.1227 18.5892 15.7869 18.5892 15.3727H17.0892ZM18.5892 9.74539C18.5892 9.33117 18.2534 8.99539 17.8392 8.99539C17.425 8.99539 17.0892 9.33117 17.0892 9.74539H18.5892ZM5.05045 21.75H18.9496V20.25H5.05045V21.75ZM21.4883 18.5742L21.2547 17.6738L19.8028 18.0505L20.0363 18.9508L21.4883 18.5742ZM18.716 15.7482H5.28402V17.2482H18.716V15.7482ZM2.74529 17.6738L2.51172 18.5742L3.96366 18.9508L4.19723 18.0505L2.74529 17.6738ZM5.28402 15.7482C4.83001 15.7482 4.38866 15.7347 4.0031 15.8908L4.56604 17.2812C4.61446 17.2616 4.69474 17.2482 5.28402 17.2482V15.7482ZM4.19723 18.0505C4.34138 17.4948 4.3712 17.439 4.39435 17.4092L3.20986 16.4889C2.95087 16.8222 2.85416 17.2541 2.74529 17.6738L4.19723 18.0505ZM4.0031 15.8908C3.69149 16.017 3.41694 16.2224 3.20986 16.4889L4.39435 17.4092C4.43621 17.3553 4.49474 17.3101 4.56604 17.2812L4.0031 15.8908ZM21.2547 17.6738C21.1458 17.2541 21.0491 16.8222 20.7901 16.4889L19.6057 17.4092C19.6288 17.439 19.6586 17.4948 19.8028 18.0505L21.2547 17.6738ZM18.716 17.2482C19.3053 17.2482 19.3855 17.2616 19.434 17.2812L19.9969 15.8908C19.6113 15.7347 19.17 15.7482 18.716 15.7482V17.2482ZM20.7901 16.4889C20.5831 16.2224 20.3085 16.017 19.9969 15.8908L19.434 17.2812C19.5053 17.3101 19.5638 17.3553 19.6057 17.4092L20.7901 16.4889ZM18.9496 21.75C19.3442 21.75 19.6877 21.7506 19.9659 21.7269C20.2486 21.7028 20.5499 21.6485 20.8303 21.4848L20.074 20.1894C20.0738 20.1895 20.0714 20.191 20.0653 20.1934C20.0589 20.1959 20.0477 20.1998 20.0298 20.2043C19.9923 20.2139 19.933 20.2243 19.8384 20.2323C19.639 20.2494 19.3707 20.25 18.9496 20.25V21.75ZM20.0363 18.9508C20.1388 19.346 20.2022 19.593 20.2327 19.7794C20.2623 19.9599 20.2438 19.9928 20.2486 19.9778L21.6769 20.4359C21.778 20.1206 21.7582 19.8127 21.713 19.5367C21.6687 19.2667 21.5836 18.9417 21.4883 18.5742L20.0363 18.9508ZM20.8303 21.4848C21.2304 21.2512 21.5345 20.88 21.6769 20.4359L20.2486 19.9778C20.2222 20.0602 20.163 20.1375 20.074 20.1894L20.8303 21.4848ZM5.05045 20.25C4.6293 20.25 4.36105 20.2494 4.16157 20.2323C4.06695 20.2243 4.00773 20.2139 3.97017 20.2043C3.95229 20.1998 3.94106 20.1959 3.9347 20.1934C3.92859 20.191 3.92617 20.1895 3.92601 20.1894L3.16966 21.4848C3.45007 21.6485 3.75139 21.7028 4.03414 21.7269C4.31228 21.7506 4.65584 21.75 5.05045 21.75V20.25ZM2.51172 18.5742C2.41638 18.9417 2.33131 19.2667 2.28703 19.5367C2.24178 19.8127 2.22196 20.1206 2.32306 20.4359L3.75141 19.9778C3.75619 19.9928 3.73767 19.9599 3.76726 19.7794C3.79783 19.593 3.86115 19.346 3.96366 18.9508L2.51172 18.5742ZM3.92601 20.1894C3.83704 20.1375 3.77782 20.0602 3.75141 19.9778L2.32306 20.4359C2.46549 20.88 2.76962 21.2512 3.16966 21.4848L3.92601 20.1894ZM4.11381 9.36993H19.8862V7.86993H4.11381V9.36993ZM10.8388 1.59416L4.00297 4.88804L4.6541 6.23934L11.4899 2.94547L10.8388 1.59416ZM2.82716 8.32503L3.03025 8.71647L4.36172 8.02567L4.15863 7.63423L2.82716 8.32503ZM20.9697 8.71647L21.1728 8.32503L19.8414 7.63423L19.6383 8.02567L20.9697 8.71647ZM19.997 4.88804L13.1612 1.59416L12.5101 2.94547L19.3459 6.23934L19.997 4.88804ZM21.1728 8.32503C21.3132 8.05444 21.4404 7.8107 21.5281 7.60028C21.6192 7.38183 21.6959 7.13662 21.6937 6.85787L20.1938 6.86969C20.1937 6.86113 20.1983 6.89196 20.1437 7.02295C20.0857 7.16196 19.9935 7.34105 19.8414 7.63423L21.1728 8.32503ZM19.3459 6.23934C19.6494 6.38557 19.8368 6.47653 19.972 6.5555C20.0352 6.59246 20.0724 6.6186 20.0946 6.63648C20.1052 6.645 20.1116 6.65097 20.1151 6.65448C20.1185 6.65786 20.1198 6.6596 20.1201 6.65998L21.3109 5.74783C21.1432 5.52886 20.9346 5.38069 20.7289 5.26047C20.5298 5.14415 20.2786 5.02369 19.997 4.88804L19.3459 6.23934ZM21.6937 6.85787C21.6905 6.455 21.555 6.06646 21.3109 5.74783L20.1201 6.65998C20.169 6.72378 20.1932 6.79723 20.1938 6.86969L21.6937 6.85787ZM4.00297 4.88804C3.72144 5.02369 3.47016 5.14415 3.27114 5.26047C3.06545 5.38069 2.85685 5.52886 2.68912 5.74783L3.87991 6.65998C3.8802 6.6596 3.88154 6.65786 3.88491 6.65448C3.8884 6.65097 3.89476 6.645 3.90536 6.63648C3.92761 6.6186 3.9648 6.59246 4.02805 6.5555C4.16316 6.47653 4.35063 6.38557 4.6541 6.23934L4.00297 4.88804ZM4.15863 7.63423C4.00652 7.34105 3.91429 7.16196 3.85632 7.02295C3.8017 6.89196 3.80632 6.86113 3.80625 6.86969L2.3063 6.85787C2.3041 7.13662 2.38078 7.38183 2.47188 7.60028C2.55962 7.8107 2.68677 8.05444 2.82716 8.32503L4.15863 7.63423ZM2.68912 5.74783C2.44505 6.06646 2.30947 6.455 2.3063 6.85787L3.80625 6.86969C3.80682 6.79723 3.83104 6.72378 3.87991 6.65998L2.68912 5.74783ZM19.8862 9.36993C19.9383 9.36993 20.1372 9.37909 20.3262 9.31626L19.8531 7.89284C19.8829 7.88294 19.9095 7.87701 19.9305 7.87352C19.9503 7.87025 19.9632 7.86945 19.9649 7.86935C19.9661 7.86928 19.9618 7.86956 19.9468 7.86974C19.9318 7.86992 19.9137 7.86993 19.8862 7.86993V9.36993ZM19.6383 8.02567C19.6259 8.04945 19.618 8.06469 19.6114 8.07717C19.6047 8.08952 19.6031 8.0921 19.6045 8.08985C19.6061 8.08716 19.6137 8.07459 19.627 8.05718C19.6412 8.03863 19.66 8.01672 19.6839 7.99416L20.7136 9.08498C20.8628 8.9441 20.9478 8.75887 20.9697 8.71647L19.6383 8.02567ZM20.3262 9.31626C20.4694 9.26867 20.602 9.1903 20.7136 9.08499L19.6839 7.99416C19.7337 7.94721 19.7917 7.91323 19.8531 7.89284L20.3262 9.31626ZM4.11381 7.86993C4.08633 7.86993 4.0682 7.86992 4.05315 7.86974C4.03823 7.86956 4.03391 7.86928 4.03512 7.86935C4.03677 7.86945 4.04974 7.87025 4.06947 7.87352C4.09054 7.87701 4.11713 7.88294 4.14692 7.89284L3.67376 9.31626C3.86277 9.37909 4.0617 9.36993 4.11381 9.36993V7.86993ZM3.03025 8.71647C3.05225 8.75886 3.13718 8.9441 3.28644 9.08498L4.31606 7.99416C4.33995 8.01672 4.35883 8.03863 4.37298 8.05719C4.38626 8.0746 4.39392 8.08716 4.39554 8.08985C4.3969 8.0921 4.39525 8.08952 4.38865 8.07717C4.38198 8.06469 4.37405 8.04945 4.36172 8.02567L3.03025 8.71647ZM4.14692 7.89284C4.20826 7.91323 4.26631 7.94721 4.31605 7.99416L3.28645 9.08499C3.39802 9.1903 3.5306 9.26867 3.67376 9.31626L4.14692 7.89284ZM11.4899 2.94547C11.8339 2.77971 11.8812 2.76401 11.9181 2.75733L11.6512 1.28127C11.3667 1.3327 11.1076 1.46464 10.8388 1.59416L11.4899 2.94547ZM13.1612 1.59416C12.8924 1.46464 12.6333 1.3327 12.3488 1.28127L12.0819 2.75733C12.1188 2.76401 12.1661 2.77971 12.5101 2.94547L13.1612 1.59416ZM11.9181 2.75733C11.9722 2.74756 12.0278 2.74756 12.0819 2.75733L12.3488 1.28127C12.1182 1.23958 11.8818 1.23958 11.6512 1.28127L11.9181 2.75733ZM6.91078 15.3727V8.61993H5.41078V15.3727H6.91078ZM12.75 15.3727V9.74539H11.25V15.3727H12.75ZM18.5892 15.3727V9.74539H17.0892V15.3727H18.5892Z" fill="#B5EBFF"/>
</svg>